<?xml version="1.0" encoding="UTF-8" standalone="no"?>
<!-- Created with Inkscape (http://www.inkscape.org/) -->

<svg
   width="800"
   height="400"
   viewBox="0 0 800 400"
   version="1.1"
   id="svg5"
   inkscape:version="1.1 (c68e22c387, 2021-05-23)"
   sodipodi:docname="overview.svg"
   xmlns:inkscape="http://www.inkscape.org/namespaces/inkscape"
   xmlns:sodipodi="http://sodipodi.sourceforge.net/DTD/sodipodi-0.dtd"
   xmlns:xlink="http://www.w3.org/1999/xlink"
   xmlns="http://www.w3.org/2000/svg"
   xmlns:svg="http://www.w3.org/2000/svg">
  <sodipodi:namedview
     id="namedview7"
     pagecolor="#ffffff"
     bordercolor="#666666"
     borderopacity="1.0"
     inkscape:pageshadow="2"
     inkscape:pageopacity="0.0"
     inkscape:pagecheckerboard="0"
     inkscape:document-units="px"
     showgrid="true"
     units="px"
     width="80px"
     inkscape:zoom="1"
     inkscape:cx="398.5"
     inkscape:cy="320.5"
     inkscape:window-width="1920"
     inkscape:window-height="1017"
     inkscape:window-x="1272"
     inkscape:window-y="-8"
     inkscape:window-maximized="1"
     inkscape:current-layer="layer1">
    <inkscape:grid
       type="xygrid"
       id="grid9"
       spacingx="1"
       spacingy="1"
       empspacing="2" />
  </sodipodi:namedview>
  <defs
     id="defs2">
    <rect
       x="276"
       y="376"
       width="128"
       height="44"
       id="rect67301" />
    <linearGradient
       inkscape:collect="always"
       id="linearGradient1001">
      <stop
         style="stop-color:#ff7f2a;stop-opacity:1"
         offset="0"
         id="stop997" />
      <stop
         style="stop-color:#aa4400;stop-opacity:1"
         offset="1"
         id="stop999" />
    </linearGradient>
    <linearGradient
       inkscape:collect="always"
       xlink:href="#linearGradient1001"
       id="linearGradient1003"
       x1="320"
       y1="105"
       x2="500"
       y2="105"
       gradientUnits="userSpaceOnUse"
       gradientTransform="translate(-10)" />
    <linearGradient
       inkscape:collect="always"
       xlink:href="#linearGradient1001"
       id="linearGradient54567"
       x1="1.358924"
       y1="12.732878"
       x2="21.764366"
       y2="12.732878"
       gradientUnits="userSpaceOnUse" />
    <filter
       style="color-interpolation-filters:sRGB;"
       inkscape:label="Drop Shadow"
       id="filter56545"
       x="-0.056424581"
       y="-0.038996139"
       width="1.1184358"
       height="1.0818533">
      <feFlood
         flood-opacity="0.498039"
         flood-color="rgb(0,0,0)"
         result="flood"
         id="feFlood56535" />
      <feComposite
         in="flood"
         in2="SourceGraphic"
         operator="in"
         result="composite1"
         id="feComposite56537" />
      <feGaussianBlur
         in="composite1"
         stdDeviation="4"
         result="blur"
         id="feGaussianBlur56539" />
      <feOffset
         dx="1"
         dy="1"
         result="offset"
         id="feOffset56541" />
      <feComposite
         in="SourceGraphic"
         in2="offset"
         operator="over"
         result="composite2"
         id="feComposite56543" />
    </filter>
    <filter
       style="color-interpolation-filters:sRGB"
       inkscape:label="Drop Shadow"
       id="filter56545-2"
       x="-0.056111111"
       y="-0.038846154"
       width="1.1177778"
       height="1.0815385">
      <feFlood
         flood-opacity="0.498039"
         flood-color="rgb(0,0,0)"
         result="flood"
         id="feFlood56535-0" />
      <feComposite
         in="flood"
         in2="SourceGraphic"
         operator="in"
         result="composite1"
         id="feComposite56537-3" />
      <feGaussianBlur
         in="composite1"
         stdDeviation="4"
         result="blur"
         id="feGaussianBlur56539-1" />
      <feOffset
         dx="1"
         dy="1"
         result="offset"
         id="feOffset56541-1" />
      <feComposite
         in="SourceGraphic"
         in2="offset"
         operator="over"
         result="composite2"
         id="feComposite56543-7" />
    </filter>
    <clipPath
       clipPathUnits="userSpaceOnUse"
       id="clipPath16">
      <path
         d="M 0,595.28 H 595.28 V 0 H 0 Z"
         id="path18"
         inkscape:connector-curvature="0" />
    </clipPath>
    <linearGradient
       inkscape:collect="always"
       xlink:href="#linearGradient1001"
       id="linearGradient110069"
       gradientUnits="userSpaceOnUse"
       x1="1.358924"
       y1="12.732878"
       x2="21.764366"
       y2="12.732878" />
  </defs>
  <g
     inkscape:label="Ebene 1"
     inkscape:groupmode="layer"
     id="layer1">
    <g
       id="hero"
       transform="translate(2,-7.5)">
      <rect
         style="fill:#ffffff;fill-opacity:1;fill-rule:evenodd;stroke:#d9dfe5;stroke-opacity:1;filter:url(#filter56545)"
         id="rect38"
         width="179"
         height="259"
         x="310.5"
         y="100.5" />
      <rect
         style="fill:url(#linearGradient1003);fill-opacity:1;stroke:none;stroke-opacity:1"
         id="rect943"
         width="180"
         height="10"
         x="310"
         y="100" />
      <g
         id="g8"
         transform="matrix(4.9999996,0,0,4.8666667,342.19178,110.53333)"
         style="fill:none;fill-opacity:1;stroke:url(#linearGradient54567);stroke-width:0.405442;stroke-linejoin:round;stroke-miterlimit:4;stroke-dasharray:none;stroke-opacity:1">
        <path
           d="m 1.5616452,10.164385 v 2.054794 H 17.561645 v -2.054794 z m 11.9999998,-5.136987 -1.41,-1.4486302 -1.59,1.6232877 V 1.9452061 H 8.5616454 v 3.2773974 l -1.6100002,-1.6232878 -1.39,1.4280823 4.0000002,4.1095887 z M 5.5616455,15.301371 H 21.561646 V 13.246576 H 5.5616455 Z m 4,5.136986 1.3900005,1.428082 1.61,-1.623287 v 3.277397 h 2 V 20.2637 l 1.59,1.633561 1.41,-1.458904 -4,-4.109589 z"
           id="path6"
           style="fill:none;fill-opacity:1;stroke:url(#linearGradient110069);stroke-width:0.405442;stroke-linejoin:round;stroke-miterlimit:4;stroke-dasharray:none;stroke-opacity:1"
           sodipodi:nodetypes="cccccccccccccccccccccccccccccc" />
      </g>
      <text
         xml:space="preserve"
         style="font-style:normal;font-variant:normal;font-weight:normal;font-stretch:normal;font-size:29.3333px;line-height:1.25;font-family:'-apple-system', BlinkMacSystemFont, 'Segoe UI Variable', 'Segoe UI', system-ui, ui-sans-serif, Helvetica, Arial, sans-serif, 'Apple Color Emoji', 'Segoe UI Emoji';-inkscape-font-specification:'-apple-system, BlinkMacSystemFont, Segoe UI Variable, Segoe UI, system-ui, ui-sans-serif, Helvetica, Arial, sans-serif, Apple Color Emoji, Segoe UI Emoji';white-space:pre;inline-size:125;fill:#000000;fill-opacity:1;stroke:none"
         x="400"
         y="265"
         id="text5506"
         text-anchor="middle"><tspan
           x="400"
           y="265"
           id="tspan119201"><tspan
             style="text-align:center"
             id="tspan119199">XLPP</tspan></tspan></text>
      <text
         xml:space="preserve"
         style="font-style:normal;font-variant:normal;font-weight:normal;font-stretch:normal;font-size:16px;line-height:1;font-family:'-apple-system', BlinkMacSystemFont, 'Segoe UI Variable', 'Segoe UI', system-ui, ui-sans-serif, Helvetica, Arial, sans-serif, 'Apple Color Emoji', 'Segoe UI Emoji';-inkscape-font-specification:'-apple-system, BlinkMacSystemFont, Segoe UI Variable, Segoe UI, system-ui, ui-sans-serif, Helvetica, Arial, sans-serif, Apple Color Emoji, Segoe UI Emoji';white-space:pre;inline-size:180;fill:#000000;fill-opacity:1;stroke:none"
         x="400"
         y="290"
         id="text5506-5"
         text-anchor="middle"><tspan
           x="400"
           y="290"
           id="tspan119205"><tspan
             style="text-align:center"
             id="tspan119203">XLPP encodes Sensor</tspan><tspan
             y="290"
             id="tspan119207"> </tspan></tspan><tspan
           x="400"
           y="305.99999"
           id="tspan119211"><tspan
             style="text-align:center"
             id="tspan119209">data in Arduino and</tspan><tspan
             y="305.99999"
             id="tspan119213"> </tspan></tspan><tspan
           x="400"
           y="321.99999"
           id="tspan119217"><tspan
             style="text-align:center"
             id="tspan119215">decodes the payload in</tspan><tspan
             y="321.99999"
             id="tspan119219"> </tspan></tspan><tspan
           x="400"
           y="337.99999"
           id="tspan119223"><tspan
             style="text-align:center"
             id="tspan119221">Wazigate Edge.</tspan></tspan></text>
    </g>
    <g
       id="wazidev"
       transform="translate(-1,10)">
      <rect
         style="fill:none;stroke:#d9dfe5;stroke-width:2.0292;stroke-linejoin:round;stroke-miterlimit:4;stroke-dasharray:none;stroke-opacity:1"
         id="rect63639"
         width="100"
         height="175"
         x="90"
         y="135"
         ry="5.147059" />
      <rect
         style="fill:#d9dfe5;fill-opacity:1;stroke:none;stroke-width:2;stroke-linejoin:round;stroke-miterlimit:4;stroke-dasharray:none;stroke-opacity:1"
         id="rect63798"
         width="5"
         height="110"
         x="95"
         y="150"
         ry="0" />
      <rect
         style="fill:#d9dfe5;fill-opacity:1;stroke:none;stroke-width:2;stroke-linejoin:round;stroke-miterlimit:4;stroke-dasharray:none;stroke-opacity:1"
         id="rect63798-0"
         width="5"
         height="110"
         x="180"
         y="150"
         ry="0" />
      <circle
         style="fill:none;fill-opacity:1;stroke:#d9dfe5;stroke-width:2;stroke-linejoin:round;stroke-miterlimit:4;stroke-dasharray:none;stroke-opacity:1"
         id="path63897"
         cx="97.5"
         cy="142.5"
         r="4" />
      <circle
         style="fill:none;fill-opacity:1;stroke:#d9dfe5;stroke-width:2;stroke-linejoin:round;stroke-miterlimit:4;stroke-dasharray:none;stroke-opacity:1"
         id="path63899"
         cx="182.5"
         cy="142.5"
         r="4" />
      <circle
         style="fill:none;fill-opacity:1;stroke:#d9dfe5;stroke-width:2;stroke-linejoin:round;stroke-miterlimit:4;stroke-dasharray:none;stroke-opacity:1"
         id="path64127"
         cx="97.5"
         cy="267.5"
         r="4" />
      <circle
         style="fill:none;fill-opacity:1;stroke:#d9dfe5;stroke-width:2;stroke-linejoin:round;stroke-miterlimit:4;stroke-dasharray:none;stroke-opacity:1"
         id="path64129"
         cx="182.5"
         cy="267.5"
         r="4" />
      <rect
         style="fill:#d9dfe5;fill-opacity:1;stroke:none;stroke-width:2;stroke-linejoin:round;stroke-miterlimit:4;stroke-dasharray:none;stroke-opacity:1"
         id="rect64156"
         width="50"
         height="5"
         x="115"
         y="255" />
      <rect
         style="fill:#d9dfe5;fill-opacity:1;stroke:none;stroke-width:2;stroke-linejoin:round;stroke-miterlimit:4;stroke-dasharray:none;stroke-opacity:1"
         id="rect64158"
         width="20"
         height="20"
         x="130"
         y="210"
         ry="5" />
      <rect
         style="fill:#d9dfe5;fill-opacity:1;stroke:none;stroke-width:2;stroke-linejoin:round;stroke-miterlimit:4;stroke-dasharray:none;stroke-opacity:1"
         id="rect64160"
         width="10"
         height="25"
         x="140"
         y="160"
         ry="0" />
      <rect
         style="fill:#d9dfe5;fill-opacity:1;stroke:none;stroke-width:2;stroke-linejoin:round;stroke-miterlimit:4;stroke-dasharray:none;stroke-opacity:1"
         id="rect64162"
         width="15"
         height="10"
         x="110"
         y="175" />
      <rect
         style="fill:#d9dfe5;fill-opacity:1;stroke:none;stroke-width:2;stroke-linejoin:round;stroke-miterlimit:4;stroke-dasharray:none;stroke-opacity:1"
         id="rect64164"
         width="20"
         height="20"
         x="130"
         y="130" />
      <g
         id="g14"
         clip-path="url(#clipPath16)"
         transform="matrix(0.16337828,0,0,-0.19331942,93.304606,334.12319)"
         style="fill:#d9dfe5;fill-opacity:1">
        <g
           id="g20"
           transform="translate(354.1562,300.5928)"
           style="fill:#d9dfe5;fill-opacity:1">
          <path
             d="m 0,0 c 2.703,-1.123 4.773,-2.579 5.791,-4.31 v 5.628 c 0,4.747 -9.303,8.594 -20.777,8.594 -11.475,0 -20.777,-3.847 -20.777,-8.594 v -5.622 c 1.021,1.727 3.088,3.181 5.788,4.304 3.884,1.603 9.16,2.571 14.989,2.575 C -9.162,2.571 -3.882,1.603 0,0"
             style="fill:#d9dfe5;fill-opacity:1;fill-rule:nonzero;stroke:none"
             id="path22"
             inkscape:connector-curvature="0" />
        </g>
        <g
           id="g24"
           transform="translate(504.9473,266.0645)"
           style="fill:#d9dfe5;fill-opacity:1">
          <path
             d="m 0,0 c 6.266,8.055 10.053,18.178 10.053,29.125 0,11.431 -4.063,21.896 -10.81,30.158 -1.309,1.584 -3.72,1.791 -5.233,0.346 L -6.817,58.871 C -8.194,57.563 -8.331,55.359 -7.161,53.914 -1.653,47.166 1.652,38.559 1.652,29.195 1.652,20.174 -1.446,11.842 -6.541,5.232 -7.712,3.717 -7.505,1.584 -6.06,0.344 l 0.827,-0.758 C -3.718,-1.859 -1.309,-1.654 0,0"
             style="fill:#d9dfe5;fill-opacity:1;fill-rule:nonzero;stroke:none"
             id="path26"
             inkscape:connector-curvature="0" />
        </g>
        <g
           id="g28"
           transform="translate(495.8584,275.0156)"
           style="fill:#d9dfe5;fill-opacity:1">
          <path
             d="m 0,0 c 4.062,5.715 6.472,12.668 6.472,20.174 0,7.849 -2.618,15.148 -7.023,21.002 -1.308,1.72 -3.787,1.996 -5.371,0.482 l -0.826,-0.759 c -1.377,-1.307 -1.516,-3.374 -0.413,-4.888 3.305,-4.407 5.302,-9.915 5.302,-15.837 0,-5.715 -1.79,-11.016 -4.889,-15.285 -1.033,-1.516 -0.757,-3.58 0.62,-4.752 l 0.826,-0.688 C -3.787,-2.066 -1.309,-1.721 0,0"
             style="fill:#d9dfe5;fill-opacity:1;fill-rule:nonzero;stroke:none"
             id="path30"
             inkscape:connector-curvature="0" />
        </g>
        <g
           id="g32"
           transform="translate(485.8057,284.3105)"
           style="fill:#d9dfe5;fill-opacity:1">
          <path
             d="m 0,0 c 1.928,3.168 3.029,6.887 3.029,10.879 0,4.201 -1.239,8.195 -3.374,11.5 -1.239,1.928 -3.855,2.271 -5.509,0.756 L -6.68,22.379 c -1.238,-1.172 -1.584,-3.098 -0.62,-4.545 1.24,-1.996 1.997,-4.406 1.997,-6.955 0,-2.34 -0.62,-4.543 -1.72,-6.473 -0.895,-1.513 -0.621,-3.373 0.688,-4.545 l 0.826,-0.756 C -3.856,-2.34 -1.171,-1.928 0,0"
             style="fill:#d9dfe5;fill-opacity:1;fill-rule:nonzero;stroke:none"
             id="path34"
             inkscape:connector-curvature="0" />
        </g>
        <g
           id="g36"
           transform="translate(470.3213,295.3965)"
           style="fill:#d9dfe5;fill-opacity:1">
          <path
             d="m 0,0 c 0,-2.32 -1.88,-4.199 -4.2,-4.199 -2.321,0 -4.199,1.879 -4.199,4.199 0,2.319 1.878,4.199 4.199,4.199 C -1.88,4.199 0,2.319 0,0"
             style="fill:#d9dfe5;fill-opacity:1;fill-rule:nonzero;stroke:none"
             id="path38"
             inkscape:connector-curvature="0" />
        </g>
        <g
           id="g40"
           transform="translate(400.4326,327.5273)"
           style="fill:#d9dfe5;fill-opacity:1">
          <path
             d="M 0,0 C 1.693,0 3.127,-0.604 4.299,-1.808 5.472,-3.014 6.058,-4.463 6.058,-6.156 V -31.56 c 0,-4.298 -0.83,-8.354 -2.492,-12.165 -1.661,-3.81 -3.908,-7.132 -6.742,-9.965 -2.833,-2.834 -6.155,-5.081 -9.966,-6.743 -3.81,-1.661 -7.865,-2.491 -12.165,-2.491 -4.364,0 -8.451,0.83 -12.261,2.491 -3.811,1.662 -7.133,3.909 -9.967,6.743 -2.833,2.833 -5.08,6.155 -6.741,9.965 -1.662,3.811 -2.493,7.867 -2.493,12.165 v 25.404 c 0,1.693 0.602,3.142 1.808,4.348 1.205,1.204 2.653,1.808 4.349,1.808 1.692,0 3.126,-0.602 4.299,-1.805 1.172,-1.203 1.758,-2.648 1.758,-4.339 v -25.355 c 0,-2.665 0.504,-5.152 1.515,-7.461 1.009,-2.308 2.377,-4.339 4.103,-6.094 1.726,-1.756 3.762,-3.137 6.107,-4.145 2.346,-1.008 4.852,-1.511 7.523,-1.511 2.605,0 5.081,0.503 7.426,1.511 2.346,1.008 4.398,2.389 6.156,4.145 1.759,1.755 3.142,3.786 4.153,6.094 1.009,2.309 1.514,4.796 1.514,7.461 h -0.097 v 25.355 c 0,1.691 0.601,3.136 1.807,4.339 C -3.144,-0.602 -1.694,0 0,0"
             style="fill:#d9dfe5;fill-opacity:1;fill-rule:nonzero;stroke:none"
             id="path42"
             inkscape:connector-curvature="0" />
        </g>
        <g
           id="g44"
           transform="translate(460.3926,294.6973)"
           style="fill:#d9dfe5;fill-opacity:1">
          <path
             d="m 0,0 c 0.325,4.559 -0.813,8.662 -3.415,12.312 -1.301,1.887 -2.879,3.483 -4.732,4.788 -1.854,1.301 -3.854,2.246 -6,2.833 -4.424,1.236 -8.686,0.943 -12.784,-0.88 0.523,0.259 1.043,0.504 1.566,0.733 0.521,0.228 1.044,0.44 1.566,0.635 -0.652,-0.261 -1.287,-0.523 -1.905,-0.782 -0.62,-0.26 -1.222,-0.554 -1.808,-0.879 -2.411,-1.043 -4.495,-2.606 -6.254,-4.69 -2.28,-2.672 -3.761,-5.733 -4.445,-9.184 -0.684,-3.453 -0.439,-6.84 0.732,-10.162 0.913,-2.476 2.28,-4.69 4.105,-6.644 1.822,-1.954 3.972,-3.485 6.448,-4.593 2.474,-1.042 5.044,-1.563 7.71,-1.563 2.665,0 5.235,0.553 7.706,1.661 1.04,0.52 2.031,1.075 2.975,1.661 0.943,0.587 1.838,1.271 2.683,2.052 1.691,1.693 3.055,3.631 4.096,5.813 C -0.716,-4.707 -0.131,-2.41 0,0 m -1.584,27.261 c 2.217,-1.499 4.19,-3.241 5.92,-5.228 1.728,-1.988 3.181,-4.137 4.354,-6.449 1.174,-2.313 2.072,-4.755 2.692,-7.327 0.62,-2.574 0.896,-5.164 0.832,-7.769 -0.132,-3.321 -0.75,-6.562 -1.857,-9.721 -1.108,-3.161 -2.671,-6.075 -4.69,-8.745 -2.54,-3.322 -5.635,-6.009 -9.282,-8.061 -3.649,-2.052 -7.524,-3.339 -11.627,-3.859 -4.169,-0.521 -8.256,-0.211 -12.262,0.928 -4.007,1.139 -7.671,2.947 -10.992,5.423 v 0.098 -16.122 c 0,-1.694 -0.593,-3.127 -1.775,-4.299 -1.181,-1.173 -2.625,-1.759 -4.333,-1.759 -1.706,0 -3.152,0.586 -4.334,1.759 -1.181,1.172 -1.772,2.605 -1.772,4.299 V 1.173 1.759 c 0,0.52 0.016,1.026 0.049,1.514 0.032,0.489 0.081,0.993 0.146,1.515 0.26,2.67 0.897,5.259 1.908,7.768 1.01,2.507 2.283,4.837 3.816,6.985 1.533,2.15 3.328,4.088 5.383,5.814 2.055,1.725 4.289,3.176 6.704,4.348 5.022,2.346 10.308,3.305 15.852,2.883 5.545,-0.425 10.635,-2.199 15.268,-5.325"
             style="fill:#d9dfe5;fill-opacity:1;fill-rule:nonzero;stroke:none"
             id="path46"
             inkscape:connector-curvature="0" />
        </g>
        <g
           id="g48"
           transform="translate(239.9375,295.709)"
           style="fill:#d9dfe5;fill-opacity:1">
          <path
             d="m 0,0 c 0,3.347 -0.806,6.437 -2.415,9.271 0,0.065 -0.017,0.112 -0.048,0.147 -0.033,0.031 -0.049,0.08 -0.049,0.145 -0.258,0.385 -0.514,0.771 -0.773,1.159 -0.258,0.385 -0.516,0.739 -0.772,1.061 -1.739,2.256 -3.897,4.026 -6.47,5.314 -2.577,1.286 -5.411,1.931 -8.5,1.931 -3.093,0 -5.943,-0.692 -8.551,-2.077 -2.607,-1.387 -4.779,-3.203 -6.519,-5.457 C -35.32,9.883 -36.271,8.113 -36.946,6.182 -37.623,4.25 -37.962,2.188 -37.962,0 v -7.148 c 2.512,1.802 5.28,3.203 8.309,4.203 3.024,0.996 6.214,1.496 9.561,1.496 h 1.065 m 0,32.553 c 4.312,0 8.353,-0.823 12.12,-2.464 C -3.14,26.998 0.146,24.775 2.946,21.976 5.747,19.174 7.971,15.873 9.611,12.073 11.253,8.273 12.074,4.25 12.074,0 v -25.115 c 0,-1.676 -0.579,-3.09 -1.739,-4.25 -1.159,-1.158 -2.576,-1.74 -4.25,-1.74 -1.675,0 -3.106,0.582 -4.298,1.74 C 0.596,-28.205 0,-26.791 0,-25.115 v 11.592 h -19.027 v 0.097 c -0.195,-0.064 -0.55,-0.097 -1.065,-0.097 -2.125,0 -4.153,-0.325 -6.085,-0.967 -1.93,-0.645 -3.685,-1.545 -5.262,-2.703 -1.581,-1.161 -2.948,-2.545 -4.108,-4.155 -1.159,-1.611 -2.028,-3.382 -2.606,-5.312 -0.067,-0.067 -0.098,-0.131 -0.098,-0.195 0,-0.063 -0.033,-0.127 -0.097,-0.192 -0.384,-1.224 -1.093,-2.207 -2.125,-2.945 -1.031,-0.74 -2.219,-1.113 -3.574,-1.113 -1.675,0 -3.091,0.582 -4.25,1.74 -1.159,1.16 -1.739,2.574 -1.739,4.25 V -24.246 0 c 0,3.799 0.643,7.373 1.932,10.722 1.546,4.12 3.866,7.791 6.957,11.011 2.896,2.898 6.228,5.183 9.997,6.857 3.765,1.677 7.806,2.514 12.123,2.514"
             style="fill:#d9dfe5;fill-opacity:1;fill-rule:nonzero;stroke:none"
             id="path50"
             inkscape:connector-curvature="0" />
        </g>
        <g
           id="g52"
           transform="translate(317.1992,274.7949)"
           style="fill:#d9dfe5;fill-opacity:1">
          <path
             d="m 0,0 c 1.16,-1.127 1.74,-2.527 1.74,-4.201 0,-1.676 -0.58,-3.09 -1.74,-4.25 -1.159,-1.16 -2.575,-1.738 -4.249,-1.738 h -50.81 c -1.673,0 -3.089,0.578 -4.25,1.738 -1.158,1.16 -1.738,2.574 -1.738,4.25 0,1.222 0.355,2.383 1.064,3.478 l 0.579,0.578 40.182,40.282 h -33.324 c -1.676,0 -3.076,0.562 -4.202,1.689 -1.127,1.127 -1.69,2.528 -1.69,4.202 0,1.675 0.563,3.091 1.69,4.25 1.126,1.16 2.526,1.74 4.202,1.74 h 47.91 c 1.674,0 3.074,-0.58 4.202,-1.74 1.125,-1.159 1.69,-2.575 1.69,-4.25 0,-1.223 -0.354,-2.382 -1.062,-3.477 -0.13,-0.129 -0.275,-0.291 -0.435,-0.483 -0.162,-0.193 -0.338,-0.386 -0.531,-0.58 L -18.448,23.812 v 0.096 L -40.666,1.691 H -4.249 C -2.575,1.691 -1.159,1.127 0,0"
             style="fill:#d9dfe5;fill-opacity:1;fill-rule:nonzero;stroke:none"
             id="path54"
             inkscape:connector-curvature="0" />
        </g>
        <g
           id="g56"
           transform="translate(329.0674,326.8125)"
           style="fill:#d9dfe5;fill-opacity:1">
          <path
             d="M 0,0 C 1.674,0 3.106,-0.597 4.299,-1.787 5.49,-2.979 6.086,-4.412 6.086,-6.086 V -55.93 c 0,-1.674 -0.596,-3.107 -1.787,-4.297 C 3.106,-61.42 1.674,-62.014 0,-62.014 c -1.675,0 -3.091,0.594 -4.25,1.787 -1.159,1.19 -1.738,2.623 -1.738,4.297 v 49.844 c 0,1.674 0.579,3.107 1.738,4.299 C -3.091,-0.597 -1.675,0 0,0"
             style="fill:#d9dfe5;fill-opacity:1;fill-rule:nonzero;stroke:none"
             id="path58"
             inkscape:connector-curvature="0" />
        </g>
        <g
           id="g60"
           transform="translate(183.9854,324.9766)"
           style="fill:#d9dfe5;fill-opacity:1">
          <path
             d="M 0,0 C -1.16,1.159 -2.577,1.738 -4.25,1.738 -5.926,1.738 -7.326,1.159 -8.452,0 -9.58,-1.159 -10.143,-2.577 -10.143,-4.25 v -35.836 l -7.803,7.822 c -3.149,3.157 -6.969,4.735 -11.466,4.735 -2.185,0 -4.272,-0.403 -6.264,-1.207 -1.992,-0.807 -3.725,-1.981 -5.202,-3.528 l -7.708,-7.726 v 35.74 c 0,1.674 -0.586,3.091 -1.754,4.25 -1.168,1.158 -2.595,1.738 -4.283,1.738 -1.687,0 -3.117,-0.58 -4.285,-1.738 -1.169,-1.159 -1.752,-2.576 -1.752,-4.25 v -50.133 c 0,-1.676 0.58,-3.09 1.739,-4.25 1.158,-1.16 2.574,-1.738 4.25,-1.738 1.223,0 2.382,0.351 3.478,1.062 v -0.095 l 17.772,17.869 c 1.094,1.094 2.415,1.64 3.961,1.64 1.415,0 2.704,-0.515 3.862,-1.543 l 17.196,-17.291 0.771,-0.675 0.097,0.095 c 1.029,-0.711 2.125,-1.062 3.284,-1.062 1.673,0 3.09,0.578 4.25,1.738 1.159,1.16 1.738,2.574 1.738,4.25 V -4.25 C 1.738,-2.577 1.159,-1.159 0,0"
             style="fill:#d9dfe5;fill-opacity:1;fill-rule:nonzero;stroke:none"
             id="path62"
             inkscape:connector-curvature="0" />
        </g>
        <g
           id="g64"
           transform="translate(90.333,325.2861)"
           style="fill:#d9dfe5;fill-opacity:1">
          <path
             d="m 0,0 c -6.266,-8.056 -10.053,-18.179 -10.053,-29.126 0,-11.43 4.063,-21.896 10.81,-30.158 1.309,-1.584 3.721,-1.791 5.233,-0.346 l 0.827,0.76 c 1.377,1.307 1.514,3.51 0.344,4.955 -5.508,6.748 -8.812,15.355 -8.812,24.721 0,9.019 3.097,17.351 8.192,23.961 1.171,1.515 0.964,3.649 -0.48,4.888 L 5.233,0.413 C 3.718,1.858 1.31,1.653 0,0"
             style="fill:#d9dfe5;fill-opacity:1;fill-rule:nonzero;stroke:none"
             id="path66"
             inkscape:connector-curvature="0" />
        </g>
        <g
           id="g68"
           transform="translate(99.4219,316.335)"
           style="fill:#d9dfe5;fill-opacity:1">
          <path
             d="m 0,0 c -4.062,-5.715 -6.472,-12.669 -6.472,-20.175 0,-7.849 2.618,-15.148 7.023,-21.002 1.308,-1.72 3.787,-1.996 5.371,-0.48 l 0.826,0.758 c 1.377,1.306 1.517,3.373 0.413,4.888 -3.305,4.407 -5.302,9.914 -5.302,15.836 0,5.715 1.79,11.017 4.889,15.285 1.033,1.516 0.757,3.582 -0.62,4.752 L 5.304,0.551 C 3.787,2.065 1.31,1.722 0,0"
             style="fill:#d9dfe5;fill-opacity:1;fill-rule:nonzero;stroke:none"
             id="path70"
             inkscape:connector-curvature="0" />
        </g>
        <g
           id="g72"
           transform="translate(109.4746,307.0391)"
           style="fill:#d9dfe5;fill-opacity:1">
          <path
             d="m 0,0 c -1.928,-3.166 -3.028,-6.886 -3.028,-10.879 0,-4.199 1.238,-8.193 3.372,-11.498 1.24,-1.93 3.856,-2.273 5.51,-0.758 l 0.827,0.758 c 1.237,1.17 1.584,3.098 0.618,4.543 -1.238,1.998 -1.997,4.408 -1.997,6.955 0,2.342 0.62,4.545 1.721,6.473 0.895,1.514 0.622,3.373 -0.688,4.545 L 5.508,0.896 C 3.856,2.342 1.171,1.928 0,0"
             style="fill:#d9dfe5;fill-opacity:1;fill-rule:nonzero;stroke:none"
             id="path74"
             inkscape:connector-curvature="0" />
        </g>
        <g
           id="g76"
           transform="translate(346.8457,292.4639)"
           style="fill:#d9dfe5;fill-opacity:1">
          <path
             d="M 7.311,5.444 C 3.429,3.842 -1.852,2.873 -7.676,2.869 c -5.829,0.004 -11.104,0.973 -14.988,2.575 -2.7,1.123 -4.768,2.577 -5.788,4.304 V 4.126 c 0,-4.747 9.302,-8.594 20.776,-8.594 11.475,0 20.778,3.847 20.778,8.594 V 9.754 C 12.084,8.023 10.014,6.567 7.311,5.444"
             style="fill:#d9dfe5;fill-opacity:1;fill-rule:nonzero;stroke:none"
             id="path78"
             inkscape:connector-curvature="0"
             sodipodi:nodetypes="ccccssscc" />
        </g>
        <g
           id="g80"
           transform="translate(346.8457,292.4639)"
           style="fill:#d9dfe5;fill-opacity:1" />
        <g
           id="g84"
           transform="translate(334.8926,340.3047)"
           style="fill:#d9dfe5;fill-opacity:1">
          <path
             d="m 0,0 c 0,-3.262 -2.645,-5.906 -5.907,-5.906 -3.262,0 -5.906,2.644 -5.906,5.906 0,3.262 2.644,5.907 5.906,5.907 C -2.645,5.907 0,3.262 0,0"
             style="fill:#d9dfe5;fill-opacity:1;fill-rule:nonzero;stroke:none"
             id="path86"
             inkscape:connector-curvature="0" />
        </g>
      </g>
      <text
         xml:space="preserve"
         style="font-style:normal;font-variant:normal;font-weight:normal;font-stretch:normal;font-size:5.33333px;line-height:1;font-family:'-apple-system', BlinkMacSystemFont, 'Segoe UI Variable', 'Segoe UI', system-ui, ui-sans-serif, Helvetica, Arial, sans-serif, 'Apple Color Emoji', 'Segoe UI Emoji';-inkscape-font-specification:'-apple-system, BlinkMacSystemFont, Segoe UI Variable, Segoe UI, system-ui, ui-sans-serif, Helvetica, Arial, sans-serif, Apple Color Emoji, Segoe UI Emoji';white-space:pre;inline-size:180;fill:#d9dfe5;fill-opacity:1;stroke:none"
         x="400"
         y="290"
         id="text5506-5-9"
         transform="translate(-292.54089,-0.15254)"><tspan
           x="400"
           y="290"
           id="tspan119227"><tspan
             style="font-family:monospace;-inkscape-font-specification:monospace"
             id="tspan119225">WAZIDEV
</tspan></tspan><tspan
           x="400"
           y="295.4186"
           id="tspan119231"><tspan
             style="font-family:monospace;-inkscape-font-specification:monospace"
             id="tspan119229">VER 1.4</tspan></tspan></text>
    </g>
    <g
       id="wazigate"
       transform="translate(64,-16)">
      <g
         id="raspberry_pi">
        <rect
           style="fill:none;fill-opacity:1;stroke:#d9dfe5;stroke-width:2;stroke-linejoin:round;stroke-miterlimit:4;stroke-dasharray:none;stroke-opacity:1"
           id="rect85186"
           width="159"
           height="240"
           x="560"
           y="120"
           ry="4"
           rx="0" />
        <rect
           style="opacity:1;fill:#d9dfe5;fill-opacity:1;stroke:none;stroke-width:2;stroke-linejoin:round;stroke-miterlimit:4;stroke-dasharray:none;stroke-opacity:1"
           id="rect94824"
           width="44"
           height="58"
           x="668"
           y="302"
           ry="0" />
        <rect
           style="opacity:1;fill:#d9dfe5;fill-opacity:1;stroke:none;stroke-width:1.95604;stroke-linejoin:round;stroke-miterlimit:4;stroke-dasharray:none;stroke-opacity:1"
           id="rect94870"
           width="36"
           height="44"
           x="620"
           y="316"
           ry="0" />
        <rect
           style="opacity:1;fill:#d9dfe5;fill-opacity:1;stroke:none;stroke-width:1.95604;stroke-linejoin:round;stroke-miterlimit:4;stroke-dasharray:none;stroke-opacity:1"
           id="rect94872"
           width="36"
           height="44"
           x="574"
           y="316" />
        <rect
           style="opacity:1;fill:#d9dfe5;fill-opacity:1;stroke:none;stroke-width:2;stroke-linejoin:round;stroke-miterlimit:4;stroke-dasharray:none;stroke-opacity:1"
           id="rect94874"
           width="34"
           height="18"
           x="566"
           y="258" />
        <rect
           style="opacity:1;fill:#d9dfe5;fill-opacity:1;stroke:none;stroke-width:2;stroke-linejoin:round;stroke-miterlimit:4;stroke-dasharray:none;stroke-opacity:1"
           id="rect94876"
           width="8"
           height="16"
           x="558"
           y="259" />
        <rect
           style="opacity:1;fill:#d9dfe5;fill-opacity:1;stroke:none;stroke-width:2;stroke-linejoin:round;stroke-miterlimit:4;stroke-dasharray:none;stroke-opacity:1"
           id="rect94878"
           width="23"
           height="23"
           x="612"
           y="273" />
        <rect
           style="opacity:1;fill:#d9dfe5;fill-opacity:1;stroke:none;stroke-width:2;stroke-linejoin:round;stroke-miterlimit:4;stroke-dasharray:none;stroke-opacity:1"
           id="rect94880"
           width="40"
           height="31"
           x="632"
           y="230" />
        <rect
           style="opacity:1;fill:#d9dfe5;fill-opacity:1;stroke:none;stroke-width:2;stroke-linejoin:round;stroke-miterlimit:4;stroke-dasharray:none;stroke-opacity:1"
           id="rect94882"
           width="20"
           height="20"
           x="657"
           y="272" />
        <rect
           style="opacity:1;fill:#d9dfe5;fill-opacity:1;stroke:none;stroke-width:2;stroke-linejoin:round;stroke-miterlimit:4;stroke-dasharray:none;stroke-opacity:1"
           id="rect94884"
           width="14"
           height="144"
           x="701"
           y="140" />
        <rect
           style="opacity:1;fill:#d9dfe5;fill-opacity:1;stroke:none;stroke-width:2;stroke-linejoin:round;stroke-miterlimit:4;stroke-dasharray:none;stroke-opacity:1"
           id="rect94886"
           width="12"
           height="12"
           x="590"
           y="138" />
        <rect
           style="opacity:1;fill:#d9dfe5;fill-opacity:1;stroke:none;stroke-width:2;stroke-linejoin:round;stroke-miterlimit:4;stroke-dasharray:none;stroke-opacity:1"
           id="rect94888"
           width="2"
           height="10"
           x="602"
           y="139" />
        <rect
           style="opacity:1;fill:#d9dfe5;fill-opacity:1;stroke:none;stroke-width:2;stroke-linejoin:round;stroke-miterlimit:4;stroke-dasharray:none;stroke-opacity:1"
           id="rect94890"
           width="2"
           height="10"
           x="588"
           y="139" />
        <rect
           style="opacity:1;fill:#d9dfe5;fill-opacity:1;stroke:none;stroke-width:2;stroke-linejoin:round;stroke-miterlimit:4;stroke-dasharray:none;stroke-opacity:1"
           id="rect94892"
           width="12"
           height="8"
           x="579"
           y="168" />
        <rect
           style="opacity:1;fill:#d9dfe5;fill-opacity:1;stroke:none;stroke-width:2;stroke-linejoin:round;stroke-miterlimit:4;stroke-dasharray:none;stroke-opacity:1"
           id="rect94894"
           width="2"
           height="6"
           x="591"
           y="169" />
        <rect
           style="opacity:1;fill:#d9dfe5;fill-opacity:1;stroke:none;stroke-width:2;stroke-linejoin:round;stroke-miterlimit:4;stroke-dasharray:none;stroke-opacity:1"
           id="rect94896"
           width="2"
           height="6"
           x="577"
           y="169" />
        <rect
           style="opacity:1;fill:#d9dfe5;fill-opacity:1;stroke:none;stroke-width:2;stroke-linejoin:round;stroke-miterlimit:4;stroke-dasharray:none;stroke-opacity:1"
           id="rect94898"
           width="18"
           height="21"
           x="560"
           y="141" />
        <rect
           style="opacity:1;fill:#d9dfe5;fill-opacity:1;stroke:none;stroke-width:2;stroke-linejoin:round;stroke-miterlimit:4;stroke-dasharray:none;stroke-opacity:1"
           id="rect94900"
           width="22"
           height="17"
           x="560"
           y="179" />
        <circle
           style="opacity:1;fill:none;fill-opacity:1;stroke:#d9dfe5;stroke-width:4;stroke-linejoin:round;stroke-miterlimit:4;stroke-dasharray:none;stroke-opacity:1"
           id="path95050"
           cx="571"
           cy="131"
           r="5.5" />
        <circle
           style="opacity:1;fill:none;fill-opacity:1;stroke:#d9dfe5;stroke-width:4;stroke-linejoin:round;stroke-miterlimit:4;stroke-dasharray:none;stroke-opacity:1"
           id="path95050-8"
           cx="708"
           cy="131"
           r="5.5" />
        <circle
           style="opacity:1;fill:none;fill-opacity:1;stroke:#d9dfe5;stroke-width:4;stroke-linejoin:round;stroke-miterlimit:4;stroke-dasharray:none;stroke-opacity:1"
           id="path95050-5"
           cx="571"
           cy="292"
           r="5.5" />
        <circle
           style="opacity:1;fill:none;fill-opacity:1;stroke:#d9dfe5;stroke-width:4;stroke-linejoin:round;stroke-miterlimit:4;stroke-dasharray:none;stroke-opacity:1"
           id="path95050-8-7"
           cx="708"
           cy="293"
           r="5.5" />
        <g
           id="raspberry"
           transform="matrix(0.06382464,0,0,0.06382464,578.77919,204.72736)"
           style="fill:#d9dfe5;fill-opacity:1;stroke:none">
          <path
             id="path95466"
             style="fill:#d9dfe5;fill-opacity:1;stroke:none;stroke-width:0.0638246"
             d="m 588.88672,204.83398 c -0.231,0.007 -0.47959,0.0918 -0.76172,0.31446 -0.69103,-0.26655 -1.36152,-0.35906 -1.96094,0.18359 -0.92506,-0.12004 -1.22521,0.12686 -1.45312,0.41602 -0.20313,-0.004 -1.52107,-0.20758 -2.125,0.69336 -1.51786,-0.17957 -1.99663,0.89255 -1.45313,1.89257 -0.30999,0.4799 -0.63118,0.9544 0.0937,1.86914 -0.25645,0.50955 -0.0982,1.06153 0.50586,1.73047 -0.15942,0.71628 0.15472,1.22134 0.7168,1.61524 -0.10513,0.98019 0.89939,1.55086 1.19922,1.7539 0.11512,0.57115 0.35513,1.11016 1.50195,1.40821 0.18913,0.85117 0.87753,0.99717 1.54492,1.17578 -2.2059,1.28221 -4.09679,2.9702 -4.08398,7.10937 l -0.32422,0.57618 c -2.52943,1.53832 -4.80458,6.48128 -1.24609,10.5 0.23244,1.25788 0.62167,2.16215 0.96875,3.16211 0.51913,4.02916 3.90716,5.91554 4.80078,6.13867 1.30946,0.99746 2.70454,1.94447 4.59179,2.60742 1.77913,1.83492 3.70659,2.53441 5.64454,2.5332 0.0283,-2e-5 0.0575,3.2e-4 0.0859,0 1.93795,0.001 3.86541,-0.69828 5.64453,-2.5332 1.88725,-0.66295 3.28234,-1.60996 4.5918,-2.60742 0.89362,-0.22313 4.28164,-2.10951 4.80078,-6.13867 0.34707,-0.99996 0.73631,-1.90423 0.96875,-3.16211 3.55848,-4.01872 1.28333,-8.96168 -1.24609,-10.5 l -0.32422,-0.57618 c 0.0128,-4.13917 -1.8782,-5.82716 -4.08398,-7.10937 0.66727,-0.17861 1.35579,-0.32461 1.54492,-1.17578 1.14682,-0.29805 1.38683,-0.83706 1.50195,-1.40821 0.29983,-0.20304 1.30434,-0.77371 1.19922,-1.7539 0.56208,-0.3939 0.87622,-0.89896 0.7168,-1.61524 0.60409,-0.66894 0.7623,-1.22092 0.50585,-1.73047 0.72494,-0.91474 0.40363,-1.38924 0.0938,-1.86914 0.54338,-1.00002 0.0647,-2.07214 -1.45313,-1.89257 -0.60393,-0.90094 -1.92187,-0.69757 -2.125,-0.69336 -0.22792,-0.28916 -0.52806,-0.53606 -1.45313,-0.41602 -0.59929,-0.54265 -1.26991,-0.45014 -1.96093,-0.18359 -0.82074,-0.64766 -1.36391,-0.12795 -1.98438,0.0684 -0.99399,-0.32473 -1.22084,0.11965 -1.70898,0.30078 -1.08344,-0.22901 -1.4137,0.26867 -1.9336,0.79492 l -0.60351,-0.0117 c -1.63458,0.96331 -2.44653,2.9252 -2.73438,3.9336 -0.28798,-1.00856 -1.10008,-2.97046 -2.73437,-3.9336 l -0.60352,0.0117 c -0.51989,-0.52625 -0.8482,-1.02393 -1.93164,-0.79492 -0.48814,-0.18113 -0.71706,-0.62551 -1.71093,-0.30078 -0.40719,-0.12883 -0.78166,-0.3965 -1.22266,-0.38282 z m 0.0586,1.15625 c 0.83008,0.30745 1.25689,0.70383 1.70703,1.09571 0.15262,-0.20597 0.3874,-0.35656 0.10352,-0.85352 0.58937,0.33972 1.03494,0.73902 1.36328,1.1875 0.36465,-0.23219 0.21676,-0.54916 0.21875,-0.8418 0.6125,0.49825 1.00076,1.0291 1.47656,1.54688 0.0959,-0.0698 0.17982,-0.3073 0.25391,-0.68164 1.46129,1.41766 3.5265,4.9885 0.53125,6.4043 -2.5478,-2.10284 -5.59296,-3.63097 -8.9668,-4.77735 4.33674,2.23587 6.85905,4.0455 8.24024,5.58594 -0.70733,2.83494 -4.39885,2.96429 -5.74805,2.88477 0.27626,-0.12859 0.50811,-0.28288 0.58984,-0.51954 -0.33855,-0.2406 -1.53888,-0.0253 -2.37695,-0.49609 0.32194,-0.0667 0.47246,-0.13156 0.62305,-0.36914 -0.79179,-0.25253 -1.64488,-0.47032 -2.14649,-0.88867 0.2707,0.003 0.52342,0.0596 0.87696,-0.18555 -0.7092,-0.38219 -1.46672,-0.68333 -2.05469,-1.26758 0.36668,-0.009 0.76201,-0.004 0.87695,-0.13867 -0.64912,-0.40214 -1.19708,-0.85067 -1.65039,-1.33984 0.51315,0.0619 0.73143,0.009 0.85547,-0.0801 -0.49067,-0.50257 -1.1121,-0.92757 -1.4082,-1.54688 0.381,0.13132 0.72923,0.18141 0.98047,-0.0117 -0.16674,-0.37615 -0.88172,-0.59757 -1.29297,-1.47657 0.40109,0.0389 0.82702,0.0875 0.91211,0 -0.18652,-0.75878 -0.50505,-1.18516 -0.81836,-1.62695 0.85844,-0.0128 2.15853,0.004 2.09961,-0.0684 l -0.53125,-0.54297 c 0.8385,-0.22576 1.69744,0.036 2.32031,0.23047 0.27967,-0.22068 -0.006,-0.50024 -0.34766,-0.78516 0.7126,0.0951 1.3574,0.26065 1.93946,0.48633 0.31097,-0.28078 -0.20308,-0.56296 -0.45118,-0.84375 1.10094,0.20887 1.56772,0.50302 2.03125,0.79688 0.33632,-0.32237 0.0199,-0.59631 -0.20703,-0.87696 z m 16.38672,0 c -0.22696,0.28065 -0.54334,0.55459 -0.20703,0.87696 0.46354,-0.29386 0.93032,-0.58801 2.03125,-0.79688 -0.24809,0.28079 -0.76215,0.56297 -0.45117,0.84375 0.58206,-0.22568 1.22685,-0.39119 1.93945,-0.48633 -0.34122,0.28492 -0.62537,0.56448 -0.3457,0.78516 0.62286,-0.19452 1.47985,-0.45623 2.31836,-0.23047 l -0.53125,0.54297 c -0.0589,0.0726 1.24312,0.0556 2.10156,0.0684 -0.31331,0.44179 -0.6338,0.86817 -0.82031,1.62695 0.0851,0.0875 0.51101,0.0389 0.91211,0 -0.41126,0.879 -1.12624,1.10042 -1.29297,1.47657 0.25123,0.19312 0.59946,0.14303 0.98047,0.0117 -0.29611,0.61931 -0.91558,1.04431 -1.40625,1.54688 0.12404,0.0894 0.34036,0.14202 0.85351,0.0801 -0.4533,0.48917 -1.00126,0.9377 -1.65039,1.33984 0.11494,0.13485 0.51027,0.1297 0.87695,0.13867 -0.58797,0.58425 -1.34548,0.88539 -2.05468,1.26758 0.35354,0.24518 0.60625,0.18889 0.87695,0.18555 -0.50161,0.41835 -1.35469,0.63614 -2.14648,0.88867 0.15058,0.23758 0.30306,0.30244 0.625,0.36914 -0.83807,0.47083 -2.04035,0.25549 -2.37891,0.49609 0.0817,0.23666 0.31358,0.39095 0.58984,0.51954 -1.3492,0.0795 -5.03876,-0.0498 -5.74609,-2.88477 1.38118,-1.54044 3.90155,-3.35007 8.23828,-5.58594 -3.37384,1.14638 -6.41899,2.67451 -8.9668,4.77735 -2.99525,-1.4158 -0.93004,-4.98664 0.53125,-6.4043 0.0741,0.37434 0.15807,0.61185 0.25391,0.68164 0.4758,-0.51778 0.86406,-1.04863 1.47656,-1.54688 0.002,0.29264 -0.14395,0.60961 0.22071,0.8418 0.32834,-0.44848 0.77196,-0.84778 1.36132,-1.1875 -0.28387,0.49696 -0.0491,0.64755 0.10352,0.85352 0.45014,-0.39188 0.87695,-0.78826 1.70703,-1.09571 z m -8.25976,11.67774 c 2.12395,-0.0234 4.75466,1.58441 4.74414,3.09961 -0.009,1.33735 -1.8466,2.42102 -4.72657,2.40039 -2.82016,-0.0337 -4.71956,-1.36034 -4.71289,-2.65625 0.005,-1.06653 2.30173,-2.90601 4.69532,-2.84375 z m -7.22657,0.90234 c 0.47479,-0.009 0.9655,0.0286 1.4668,0.11328 1.47737,0.24821 -7.08097,7.71991 -7.21289,6.05274 -0.11753,-3.80514 2.42258,-6.10416 5.74609,-6.16602 z m 14.01368,0.12696 c 3.32349,0.0619 5.86362,2.36282 5.74609,6.16796 -0.13192,1.66718 -8.69026,-5.80648 -7.21289,-6.05468 0.5013,-0.0847 0.99201,-0.12212 1.4668,-0.11328 z m -2.13672,4.67382 a 5.4971954,4.6591246 55.965774 0 1 4.33789,9.80079 A 5.4971954,4.6591246 55.965774 1 1 600,224 a 5.4971954,4.6591246 55.965774 0 1 1.72266,-0.62891 z m -9.25391,0.25586 a 4.6591246,5.4971954 34.034226 0 1 1.7207,0.62891 4.6591246,5.4971954 34.034226 1 1 -6.06054,9.17187 4.6591246,5.4971954 34.034226 0 1 4.33984,-9.80078 z m 17.61133,2.7793 c 0.0652,-0.001 0.1344,0.008 0.20703,0.0273 3.85606,2.20198 3.18726,7.10043 1.10742,8.77344 -1.83171,0.81373 -3.33527,-8.76733 -1.31445,-8.80078 z m -26.43946,0.12695 c 2.02083,0.0336 0.51727,9.61647 -1.31445,8.80274 -2.07984,-1.67302 -2.74863,-6.57342 1.10742,-8.77539 0.0726,-0.0195 0.14188,-0.0284 0.20703,-0.0274 z m 13.55469,6.61524 a 5.1946945,4.7901517 0 0 1 5.19531,4.79101 5.1946945,4.7901517 0 0 1 -10.38867,0 5.1946945,4.7901517 0 0 1 5.19336,-4.79101 z m 11.48242,1.78515 c 0.40576,-0.0106 0.78447,0.10229 1.12696,0.36719 0.92222,0.91862 1.46411,4.37912 -0.15039,6.45117 -2.22343,3.08512 -5.23418,3.20502 -6.35547,2.34571 -1.17274,-1.10629 -0.27746,-4.5409 1.33008,-6.42383 1.37965,-1.55779 2.83154,-2.70851 4.04882,-2.74024 z m -23.32031,0.73438 c 1.30786,0.0561 2.87353,1.09038 4.15235,2.57422 1.48578,1.79001 2.16375,4.9343 0.92382,5.86133 -1.17304,0.70767 -4.0221,0.4165 -6.04687,-2.49219 -1.36553,-2.44076 -1.18922,-4.92462 -0.23047,-5.6543 0.35845,-0.21835 0.76522,-0.30775 1.20117,-0.28906 z m 11.86133,8.57422 c 2.0869,-0.0911 4.88709,0.67303 4.89258,1.68554 0.0346,0.98324 -2.53975,3.20311 -5.03125,3.16016 -2.58026,0.11131 -5.10934,-2.11357 -5.07617,-2.88477 -0.0386,-1.1306 3.14098,-2.01282 5.21484,-1.96093 z"
             transform="matrix(15.66793,0,0,15.66793,-9068.2719,-3207.654)" />
        </g>
      </g>
      <g
         id="wazihat">
        <rect
           style="opacity:1;fill:#d9dfe5;fill-opacity:1;stroke:none;stroke-width:3.95428;stroke-linejoin:round;stroke-miterlimit:4;stroke-dasharray:none;stroke-opacity:1"
           id="rect103617"
           width="80"
           height="180"
           x="640"
           y="120"
           ry="7.818182" />
        <rect
           style="fill:#ffffff;fill-opacity:1;stroke:none;stroke-width:2;stroke-linejoin:round;stroke-miterlimit:4;stroke-dasharray:none;stroke-opacity:1"
           id="rect94884-3"
           width="14"
           height="144"
           x="701"
           y="140" />
        <circle
           style="opacity:1;fill:#ffffff;fill-opacity:1;stroke:none;stroke-width:4;stroke-linejoin:round;stroke-miterlimit:4;stroke-dasharray:none;stroke-opacity:1"
           id="path98159"
           cx="708"
           cy="132"
           r="4" />
        <circle
           style="fill:#ffffff;fill-opacity:1;stroke:none;stroke-width:4;stroke-linejoin:round;stroke-miterlimit:4;stroke-dasharray:none;stroke-opacity:1"
           id="path98159-9"
           cx="708"
           cy="293"
           r="4" />
        <rect
           style="opacity:1;fill:#ffffff;fill-opacity:1;stroke:none;stroke-width:4;stroke-linejoin:round;stroke-miterlimit:4;stroke-dasharray:none;stroke-opacity:1"
           id="rect98304"
           width="44"
           height="44"
           x="650"
           y="150"
           ry="0" />
        <rect
           style="opacity:1;fill:#d9dfe5;fill-opacity:1;stroke:none;stroke-width:4;stroke-linejoin:round;stroke-miterlimit:4;stroke-dasharray:none;stroke-opacity:1"
           id="rect98564"
           width="24"
           height="6"
           x="688"
           y="116"
           ry="2" />
        <rect
           style="fill:#d9dfe5;fill-opacity:1;stroke:none;stroke-width:4.6188;stroke-linejoin:round;stroke-miterlimit:4;stroke-dasharray:none;stroke-opacity:1"
           id="rect98564-8"
           width="24"
           height="8"
           x="688"
           y="108"
           ry="2" />
        <rect
           style="fill:#d9dfe5;fill-opacity:1;stroke:none;stroke-width:4.6188;stroke-linejoin:round;stroke-miterlimit:4;stroke-dasharray:none;stroke-opacity:1"
           id="rect98564-8-8"
           width="12"
           height="10"
           x="694"
           y="100"
           ry="0" />
      </g>
      <path
         style="opacity:1;fill:#d9dfe5;fill-opacity:1;stroke:none;stroke-width:1px;stroke-linecap:butt;stroke-linejoin:miter;stroke-opacity:1"
         d="m 712.98144,90 -4.11461,12.33167 c -2.84856,8.53731 -9.4887,6.32176 -9.4887,6.32176 L 665.16318,97.237217 c -9.4859,-3.16508 -74.17321,-30.019722 -81.76194,-32.551784 L 491.32231,33.962244 c -5.69153,-1.899047 -1.89345,-13.282126 3.80378,-11.381181 l 92.0736,30.721406 c 7.58872,2.532064 75.44111,19.900805 84.95331,23.074661 z"
         id="antenna"
         sodipodi:nodetypes="cscssssssc"
         inkscape:transform-center-y="-31.291135"
         inkscape:transform-center-x="98.255204" />
    </g>
    <text
       xml:space="preserve"
       style="font-style:normal;font-variant:normal;font-weight:normal;font-stretch:normal;font-size:16px;line-height:1;font-family:'-apple-system', BlinkMacSystemFont, 'Segoe UI Variable', 'Segoe UI', system-ui, ui-sans-serif, Helvetica, Arial, sans-serif, 'Apple Color Emoji', 'Segoe UI Emoji';-inkscape-font-specification:'-apple-system, BlinkMacSystemFont, Segoe UI Variable, Segoe UI, system-ui, ui-sans-serif, Helvetica, Arial, sans-serif, Apple Color Emoji, Segoe UI Emoji';white-space:pre;inline-size:180;fill:#000000;fill-opacity:1;stroke:none"
       x="140"
       y="370"
       id="text5506-5-0"
       text-anchor="middle"><tspan
         x="140"
         y="370"
         id="tspan119233">Wazidev</tspan></text>
    <text
       xml:space="preserve"
       style="font-style:normal;font-variant:normal;font-weight:normal;font-stretch:normal;font-size:16px;line-height:1;font-family:'-apple-system', BlinkMacSystemFont, 'Segoe UI Variable', 'Segoe UI', system-ui, ui-sans-serif, Helvetica, Arial, sans-serif, 'Apple Color Emoji', 'Segoe UI Emoji';-inkscape-font-specification:'-apple-system, BlinkMacSystemFont, Segoe UI Variable, Segoe UI, system-ui, ui-sans-serif, Helvetica, Arial, sans-serif, Apple Color Emoji, Segoe UI Emoji';white-space:pre;inline-size:180;fill:#000000;fill-opacity:1;stroke:none"
       x="706"
       y="370"
       id="text5506-5-0-7"
       text-anchor="middle"><tspan
         x="706"
         y="370"
         id="tspan119235">Wazigate</tspan></text>
    <g
       id="arrow"
       transform="translate(4,-4)">
      <path
         style="fill:none;stroke:#d9dfe5;stroke-width:1px;stroke-linecap:round;stroke-linejoin:miter;stroke-opacity:1"
         d="m 212,212 h 72"
         id="path113762" />
      <path
         style="fill:none;stroke:#d9dfe5;stroke-width:1px;stroke-linecap:round;stroke-linejoin:miter;stroke-opacity:1"
         d="m 282,214 2,-2 -2,-2"
         id="path116521" />
    </g>
    <g
       id="arrow-6"
       transform="translate(4,29)">
      <path
         style="fill:none;stroke:#d9dfe5;stroke-width:1px;stroke-linecap:round;stroke-linejoin:miter;stroke-opacity:1"
         d="m 212,212 h 72"
         id="path113762-9" />
      <path
         style="fill:none;stroke:#d9dfe5;stroke-width:1px;stroke-linecap:round;stroke-linejoin:miter;stroke-opacity:1"
         d="m 214,214 -2,-2 2,-2"
         id="path116521-1"
         sodipodi:nodetypes="ccc" />
    </g>
    <g
       id="arrow-4"
       transform="translate(308,-4)">
      <path
         style="fill:none;stroke:#d9dfe5;stroke-width:1px;stroke-linecap:round;stroke-linejoin:miter;stroke-opacity:1"
         d="m 212,212 h 72"
         id="path113762-3" />
      <path
         style="fill:none;stroke:#d9dfe5;stroke-width:1px;stroke-linecap:round;stroke-linejoin:miter;stroke-opacity:1"
         d="m 282,214 2,-2 -2,-2"
         id="path116521-8" />
    </g>
    <g
       id="arrow-6-4"
       transform="translate(308,29)">
      <path
         style="fill:none;stroke:#d9dfe5;stroke-width:1px;stroke-linecap:round;stroke-linejoin:miter;stroke-opacity:1"
         d="m 212,212 h 72"
         id="path113762-9-6" />
      <path
         style="fill:none;stroke:#d9dfe5;stroke-width:1px;stroke-linecap:round;stroke-linejoin:miter;stroke-opacity:1"
         d="m 214,214 -2,-2 2,-2"
         id="path116521-1-4"
         sodipodi:nodetypes="ccc" />
    </g>
  </g>
</svg>
